<svg width="183" height="23" viewBox="0 0 183 23" fill="none" xmlns="http://www.w3.org/2000/svg">
<path d="M18.4389 8.5071H14.7202C14.6141 7.89725 14.4186 7.35701 14.1335 6.88636C13.8485 6.40909 13.4938 6.00473 13.0696 5.67329C12.6454 5.34186 12.1615 5.09328 11.6179 4.92756C11.081 4.75521 10.5009 4.66903 9.87784 4.66903C8.77083 4.66903 7.78977 4.94744 6.93466 5.50426C6.07955 6.05445 5.41004 6.86316 4.92614 7.9304C4.44224 8.991 4.20028 10.2869 4.20028 11.8182C4.20028 13.3759 4.44224 14.6884 4.92614 15.7557C5.41667 16.8163 6.08617 17.6184 6.93466 18.1619C7.78977 18.6989 8.76752 18.9673 9.8679 18.9673C10.4777 18.9673 11.0478 18.8878 11.5781 18.7287C12.1151 18.563 12.5956 18.321 13.0199 18.0028C13.4508 17.6847 13.812 17.2936 14.1037 16.8295C14.402 16.3655 14.6075 15.8352 14.7202 15.2386L18.4389 15.2585C18.2997 16.2263 17.9981 17.1345 17.5341 17.983C17.0767 18.8314 16.4768 19.5805 15.7344 20.2301C14.992 20.8731 14.1236 21.3769 13.1293 21.7415C12.1349 22.0994 11.0313 22.2784 9.81818 22.2784C8.02841 22.2784 6.43087 21.8641 5.02557 21.0355C3.62027 20.2069 2.51326 19.0104 1.70455 17.446C0.895833 15.8816 0.491477 14.0057 0.491477 11.8182C0.491477 9.62405 0.899148 7.74811 1.71449 6.19034C2.52983 4.62595 3.64015 3.42945 5.04545 2.60085C6.45076 1.77225 8.04167 1.35795 9.81818 1.35795C10.9517 1.35795 12.0057 1.51704 12.9801 1.83523C13.9545 2.15341 14.8229 2.62074 15.5852 3.23722C16.3475 3.84706 16.974 4.59612 17.4645 5.48438C17.9616 6.366 18.2865 7.37358 18.4389 8.5071ZM25.2575 1.63636V22H21.658V1.63636H25.2575ZM28.9588 22V6.72727H32.5582V22H28.9588ZM30.7685 4.55966C30.1984 4.55966 29.7079 4.37074 29.2969 3.9929C28.8859 3.60843 28.6804 3.14773 28.6804 2.61079C28.6804 2.06723 28.8859 1.60653 29.2969 1.22869C29.7079 0.844223 30.1984 0.651988 30.7685 0.651988C31.3452 0.651988 31.8357 0.844223 32.2401 1.22869C32.651 1.60653 32.8565 2.06723 32.8565 2.61079C32.8565 3.14773 32.651 3.60843 32.2401 3.9929C31.8357 4.37074 31.3452 4.55966 30.7685 4.55966ZM43.021 22.2983C41.4897 22.2983 40.1673 21.9801 39.0536 21.3438C37.9466 20.7008 37.0948 19.7926 36.4982 18.6193C35.9016 17.4394 35.6033 16.0507 35.6033 14.4531C35.6033 12.8821 35.9016 11.5033 36.4982 10.3168C37.1014 9.12358 37.9433 8.19555 39.0238 7.53267C40.1043 6.86316 41.3737 6.52841 42.832 6.52841C43.7733 6.52841 44.6616 6.68087 45.4968 6.98579C46.3387 7.28409 47.0811 7.74811 47.7241 8.37784C48.3737 9.00758 48.8841 9.80966 49.2553 10.7841C49.6265 11.7519 49.8121 12.9053 49.8121 14.2443V15.348H37.2937V12.9219H46.3619C46.3552 12.2325 46.2061 11.6193 45.9144 11.0824C45.6228 10.5388 45.2151 10.1113 44.6914 9.79972C44.1744 9.48816 43.5711 9.33239 42.8817 9.33239C42.146 9.33239 41.4996 9.51136 40.9428 9.86932C40.386 10.2206 39.9518 10.6847 39.6403 11.2614C39.3353 11.8314 39.1796 12.4579 39.1729 13.1406V15.2585C39.1729 16.1468 39.3353 16.9091 39.6602 17.5455C39.985 18.1752 40.439 18.6591 41.0224 18.9972C41.6057 19.3286 42.2885 19.4943 43.0707 19.4943C43.5943 19.4943 44.0683 19.4214 44.4925 19.2756C44.9168 19.1231 45.2847 18.901 45.5962 18.6094C45.9078 18.3177 46.1431 17.9564 46.3022 17.5256L49.663 17.9034C49.4509 18.7917 49.0465 19.5672 48.4499 20.2301C47.86 20.8864 47.1043 21.3968 46.1829 21.7614C45.2615 22.1193 44.2075 22.2983 43.021 22.2983ZM56.4567 13.0511V22H52.8572V6.72727H56.2976V9.32244H56.4766C56.8279 8.46733 57.388 7.78788 58.157 7.28409C58.9325 6.7803 59.8904 6.52841 61.0305 6.52841C62.0845 6.52841 63.0026 6.75379 63.7848 7.20454C64.5736 7.6553 65.1835 8.30824 65.6143 9.16335C66.0518 10.0185 66.2673 11.0559 66.2607 12.2756V22H62.6612V12.8324C62.6612 11.8116 62.3961 11.0128 61.8658 10.4361C61.3421 9.85937 60.6162 9.57102 59.6882 9.57102C59.0585 9.57102 58.4983 9.71023 58.0078 9.98864C57.5239 10.2604 57.1428 10.6548 56.8643 11.1719C56.5926 11.6889 56.4567 12.3153 56.4567 13.0511ZM77.5462 6.72727V9.51136H68.7663V6.72727H77.5462ZM70.9339 3.06818H74.5334V17.4062C74.5334 17.8902 74.6063 18.2614 74.7521 18.5199C74.9046 18.7718 75.1035 18.9441 75.3487 19.0369C75.594 19.1297 75.8658 19.1761 76.1641 19.1761C76.3894 19.1761 76.5949 19.1596 76.7805 19.1264C76.9728 19.0933 77.1186 19.0634 77.218 19.0369L77.8246 21.8509C77.6323 21.9171 77.3572 21.9901 76.9993 22.0696C76.648 22.1491 76.2171 22.1955 75.7067 22.2088C74.8052 22.2353 73.9931 22.0994 73.2706 21.8011C72.5481 21.4962 71.9747 21.0256 71.5504 20.3892C71.1328 19.7528 70.9273 18.9574 70.9339 18.0028V3.06818ZM87.6609 22V1.63636H95.2972C96.8616 1.63636 98.1741 1.90814 99.2347 2.4517C100.302 2.99526 101.107 3.75757 101.651 4.73864C102.201 5.71307 102.476 6.84991 102.476 8.14915C102.476 9.45502 102.198 10.5885 101.641 11.5497C101.091 12.5043 100.279 13.2434 99.2049 13.767C98.131 14.2841 96.8119 14.5426 95.2475 14.5426H89.8086V11.4801H94.7504C95.6651 11.4801 96.4142 11.3542 96.9975 11.1023C97.5808 10.8437 98.0117 10.4692 98.2901 9.97869C98.5752 9.48153 98.7177 8.87168 98.7177 8.14915C98.7177 7.42661 98.5752 6.81013 98.2901 6.29972C98.0051 5.78267 97.5709 5.39157 96.9876 5.12642C96.4042 4.85464 95.6519 4.71875 94.7305 4.71875H91.3498V22H87.6609ZM98.1808 12.7727L103.222 22H99.1055L94.1538 12.7727H98.1808ZM112.255 22.2983C110.724 22.2983 109.402 21.9801 108.288 21.3438C107.181 20.7008 106.329 19.7926 105.733 18.6193C105.136 17.4394 104.838 16.0507 104.838 14.4531C104.838 12.8821 105.136 11.5033 105.733 10.3168C106.336 9.12358 107.178 8.19555 108.258 7.53267C109.339 6.86316 110.608 6.52841 112.066 6.52841C113.008 6.52841 113.896 6.68087 114.731 6.98579C115.573 7.28409 116.315 7.74811 116.958 8.37784C117.608 9.00758 118.118 9.80966 118.49 10.7841C118.861 11.7519 119.047 12.9053 119.047 14.2443V15.348H106.528V12.9219H115.596C115.59 12.2325 115.44 11.6193 115.149 11.0824C114.857 10.5388 114.449 10.1113 113.926 9.79972C113.409 9.48816 112.806 9.33239 112.116 9.33239C111.38 9.33239 110.734 9.51136 110.177 9.86932C109.62 10.2206 109.186 10.6847 108.875 11.2614C108.57 11.8314 108.414 12.4579 108.407 13.1406V15.2585C108.407 16.1468 108.57 16.9091 108.895 17.5455C109.219 18.1752 109.673 18.6591 110.257 18.9972C110.84 19.3286 111.523 19.4943 112.305 19.4943C112.829 19.4943 113.303 19.4214 113.727 19.2756C114.151 19.1231 114.519 18.901 114.831 18.6094C115.142 18.3177 115.377 17.9564 115.537 17.5256L118.897 17.9034C118.685 18.7917 118.281 19.5672 117.684 20.2301C117.094 20.8864 116.339 21.3968 115.417 21.7614C114.496 22.1193 113.442 22.2983 112.255 22.2983ZM135.296 6.72727L129.857 22H125.88L120.441 6.72727H124.279L127.789 18.0724H127.948L131.468 6.72727H135.296ZM137.787 22V6.72727H141.386V22H137.787ZM139.597 4.55966C139.027 4.55966 138.536 4.37074 138.125 3.9929C137.714 3.60843 137.509 3.14773 137.509 2.61079C137.509 2.06723 137.714 1.60653 138.125 1.22869C138.536 0.844223 139.027 0.651988 139.597 0.651988C140.173 0.651988 140.664 0.844223 141.068 1.22869C141.479 1.60653 141.685 2.06723 141.685 2.61079C141.685 3.14773 141.479 3.60843 141.068 3.9929C140.664 4.37074 140.173 4.55966 139.597 4.55966ZM151.849 22.2983C150.318 22.2983 148.995 21.9801 147.882 21.3438C146.775 20.7008 145.923 19.7926 145.326 18.6193C144.73 17.4394 144.431 16.0507 144.431 14.4531C144.431 12.8821 144.73 11.5033 145.326 10.3168C145.93 9.12358 146.771 8.19555 147.852 7.53267C148.932 6.86316 150.202 6.52841 151.66 6.52841C152.601 6.52841 153.49 6.68087 154.325 6.98579C155.167 7.28409 155.909 7.74811 156.552 8.37784C157.202 9.00758 157.712 9.80966 158.083 10.7841C158.455 11.7519 158.64 12.9053 158.64 14.2443V15.348H146.122V12.9219H155.19C155.183 12.2325 155.034 11.6193 154.743 11.0824C154.451 10.5388 154.043 10.1113 153.52 9.79972C153.002 9.48816 152.399 9.33239 151.71 9.33239C150.974 9.33239 150.328 9.51136 149.771 9.86932C149.214 10.2206 148.78 10.6847 148.468 11.2614C148.163 11.8314 148.008 12.4579 148.001 13.1406V15.2585C148.001 16.1468 148.163 16.9091 148.488 17.5455C148.813 18.1752 149.267 18.6591 149.85 18.9972C150.434 19.3286 151.117 19.4943 151.899 19.4943C152.422 19.4943 152.896 19.4214 153.321 19.2756C153.745 19.1231 154.113 18.901 154.424 18.6094C154.736 18.3177 154.971 17.9564 155.13 17.5256L158.491 17.9034C158.279 18.7917 157.875 19.5672 157.278 20.2301C156.688 20.8864 155.932 21.3968 155.011 21.7614C154.09 22.1193 153.036 22.2983 151.849 22.2983ZM164.755 22L160.44 6.72727H164.109L166.794 17.4659H166.933L169.677 6.72727H173.306L176.051 17.4062H176.2L178.845 6.72727H182.524L178.199 22H174.45L171.586 11.679H171.377L168.514 22H164.755Z" fill="black"/>
</svg>
