<svg width="162" height="29" viewBox="0 0 162 29" fill="none" xmlns="http://www.w3.org/2000/svg">
<path d="M0.00852269 22V1.63636H13.054V4.72869H3.69744V10.2571H12.1591V13.3494H3.69744V22H0.00852269ZM16.2557 22V6.72727H19.8551V22H16.2557ZM18.0653 4.55966C17.4953 4.55966 17.0047 4.37074 16.5938 3.9929C16.1828 3.60843 15.9773 3.14773 15.9773 2.61079C15.9773 2.06723 16.1828 1.60653 16.5938 1.22869C17.0047 0.844223 17.4953 0.651988 18.0653 0.651988C18.642 0.651988 19.1326 0.844223 19.5369 1.22869C19.9479 1.60653 20.1534 2.06723 20.1534 2.61079C20.1534 3.14773 19.9479 3.60843 19.5369 3.9929C19.1326 4.37074 18.642 4.55966 18.0653 4.55966ZM27.1559 13.0511V22H23.5565V6.72727H26.9968V9.32244H27.1758C27.5271 8.46733 28.0872 7.78788 28.8562 7.28409C29.6317 6.7803 30.5896 6.52841 31.7298 6.52841C32.7837 6.52841 33.7018 6.75379 34.484 7.20454C35.2728 7.6553 35.8827 8.30824 36.3136 9.16335C36.7511 10.0185 36.9665 11.0559 36.9599 12.2756V22H33.3604V12.8324C33.3604 11.8116 33.0953 11.0128 32.565 10.4361C32.0413 9.85937 31.3155 9.57102 30.3874 9.57102C29.7577 9.57102 29.1976 9.71023 28.707 9.98864C28.2231 10.2604 27.842 10.6548 27.5636 11.1719C27.2918 11.6889 27.1559 12.3153 27.1559 13.0511ZM45.0138 22.3082C44.046 22.3082 43.1744 22.1359 42.3988 21.7912C41.6299 21.4399 41.02 20.9228 40.5692 20.2401C40.1251 19.5573 39.9031 18.7154 39.9031 17.7145C39.9031 16.8527 40.0621 16.1402 40.3803 15.5767C40.6985 15.0133 41.1327 14.5625 41.6829 14.2244C42.2331 13.8864 42.8529 13.6312 43.5423 13.4588C44.2383 13.2798 44.9575 13.1506 45.6999 13.071C46.5948 12.9782 47.3207 12.8954 47.8775 12.8224C48.4343 12.7429 48.8387 12.6236 49.0906 12.4645C49.3491 12.2988 49.4783 12.0436 49.4783 11.6989V11.6392C49.4783 10.8902 49.2563 10.3101 48.8121 9.89915C48.368 9.48816 47.7283 9.28267 46.8931 9.28267C46.0115 9.28267 45.3121 9.47491 44.7951 9.85938C44.2847 10.2438 43.94 10.6979 43.761 11.2216L40.4002 10.7443C40.6654 9.81629 41.1029 9.04072 41.7127 8.41761C42.3226 7.78788 43.0683 7.31723 43.9499 7.00568C44.8316 6.6875 45.806 6.52841 46.8732 6.52841C47.609 6.52841 48.3415 6.61458 49.0707 6.78693C49.7998 6.95928 50.466 7.24432 51.0692 7.64204C51.6725 8.03314 52.1564 8.56676 52.521 9.2429C52.8922 9.91903 53.0778 10.7642 53.0778 11.7784V22H49.6175V19.902H49.4982C49.2795 20.3262 48.9712 20.724 48.5735 21.0952C48.1824 21.4598 47.6886 21.7547 47.092 21.9801C46.502 22.1989 45.8093 22.3082 45.0138 22.3082ZM45.9485 19.6634C46.671 19.6634 47.2975 19.5208 47.8278 19.2358C48.3581 18.9441 48.7657 18.5597 49.0508 18.0824C49.3424 17.6051 49.4883 17.0848 49.4883 16.5213V14.7216C49.3756 14.8144 49.1834 14.9006 48.9116 14.9801C48.6464 15.0597 48.3481 15.1293 48.0167 15.1889C47.6853 15.2486 47.3571 15.3016 47.0323 15.348C46.7075 15.3944 46.4258 15.4342 46.1871 15.4673C45.6502 15.5402 45.1696 15.6596 44.7454 15.8253C44.3211 15.991 43.9864 16.223 43.7411 16.5213C43.4959 16.813 43.3732 17.1908 43.3732 17.6548C43.3732 18.3177 43.6152 18.8182 44.0991 19.1562C44.583 19.4943 45.1995 19.6634 45.9485 19.6634ZM60.2965 1.63636V22H56.6971V1.63636H60.2965ZM78.0028 22H71.1023V1.63636H78.142C80.1638 1.63636 81.9006 2.04403 83.3523 2.85938C84.8106 3.66809 85.9309 4.83144 86.7131 6.34943C87.4953 7.86742 87.8864 9.68371 87.8864 11.7983C87.8864 13.9195 87.492 15.7424 86.7031 17.267C85.9209 18.7917 84.7907 19.9616 83.3125 20.777C81.8409 21.5923 80.071 22 78.0028 22ZM74.7912 18.8082H77.8239C79.2424 18.8082 80.4257 18.5497 81.3736 18.0327C82.3215 17.509 83.0341 16.7301 83.5114 15.696C83.9886 14.6553 84.2273 13.3561 84.2273 11.7983C84.2273 10.2405 83.9886 8.94792 83.5114 7.92045C83.0341 6.88636 82.3281 6.11411 81.3935 5.60369C80.4654 5.08665 79.312 4.82812 77.9332 4.82812H74.7912V18.8082ZM97.9936 22.2983C96.4624 22.2983 95.1399 21.9801 94.0263 21.3438C92.9193 20.7008 92.0675 19.7926 91.4709 18.6193C90.8743 17.4394 90.576 16.0507 90.576 14.4531C90.576 12.8821 90.8743 11.5033 91.4709 10.3168C92.0741 9.12358 92.916 8.19555 93.9964 7.53267C95.0769 6.86316 96.3464 6.52841 97.8047 6.52841C98.746 6.52841 99.6342 6.68087 100.469 6.98579C101.311 7.28409 102.054 7.74811 102.697 8.37784C103.346 9.00758 103.857 9.80966 104.228 10.7841C104.599 11.7519 104.785 12.9053 104.785 14.2443V15.348H92.2663V12.9219H101.335C101.328 12.2325 101.179 11.6193 100.887 11.0824C100.595 10.5388 100.188 10.1113 99.6641 9.79972C99.147 9.48816 98.5438 9.33239 97.8544 9.33239C97.1186 9.33239 96.4723 9.51136 95.9155 9.86932C95.3587 10.2206 94.9245 10.6847 94.6129 11.2614C94.308 11.8314 94.1522 12.4579 94.1456 13.1406V15.2585C94.1456 16.1468 94.308 16.9091 94.6328 17.5455C94.9576 18.1752 95.4117 18.6591 95.995 18.9972C96.5784 19.3286 97.2611 19.4943 98.0433 19.4943C98.567 19.4943 99.041 19.4214 99.4652 19.2756C99.8894 19.1231 100.257 18.901 100.569 18.6094C100.88 18.3177 101.116 17.9564 101.275 17.5256L104.636 17.9034C104.424 18.7917 104.019 19.5672 103.423 20.2301C102.833 20.8864 102.077 21.3968 101.156 21.7614C100.234 22.1193 99.1802 22.2983 97.9936 22.2983ZM119.901 10.7642L116.62 11.1222C116.527 10.7907 116.364 10.4792 116.132 10.1875C115.907 9.89583 115.602 9.66051 115.218 9.48153C114.833 9.30256 114.363 9.21307 113.806 9.21307C113.057 9.21307 112.427 9.37547 111.917 9.70028C111.413 10.0251 111.164 10.446 111.171 10.9631C111.164 11.4072 111.327 11.7685 111.658 12.0469C111.996 12.3253 112.553 12.554 113.328 12.733L115.934 13.2898C117.379 13.6013 118.453 14.0952 119.155 14.7713C119.864 15.4474 120.222 16.3324 120.229 17.4261C120.222 18.3873 119.941 19.2358 119.384 19.9716C118.834 20.7008 118.068 21.2708 117.087 21.6818C116.106 22.0928 114.979 22.2983 113.706 22.2983C111.837 22.2983 110.332 21.9072 109.192 21.125C108.052 20.3362 107.373 19.2391 107.154 17.8338L110.664 17.4957C110.823 18.1851 111.161 18.7055 111.678 19.0568C112.195 19.4081 112.868 19.5838 113.696 19.5838C114.551 19.5838 115.238 19.4081 115.755 19.0568C116.278 18.7055 116.54 18.2713 116.54 17.7543C116.54 17.3168 116.371 16.9555 116.033 16.6705C115.702 16.3854 115.185 16.1667 114.482 16.0142L111.877 15.4673C110.412 15.1624 109.328 14.6487 108.625 13.9261C107.923 13.197 107.575 12.2756 107.581 11.1619C107.575 10.2206 107.83 9.4053 108.347 8.71591C108.871 8.01989 109.596 7.48295 110.525 7.10511C111.459 6.72064 112.536 6.52841 113.756 6.52841C115.546 6.52841 116.954 6.90956 117.982 7.67188C119.016 8.43419 119.656 9.46496 119.901 10.7642ZM123.197 22V6.72727H126.797V22H123.197ZM125.007 4.55966C124.437 4.55966 123.946 4.37074 123.535 3.9929C123.124 3.60843 122.919 3.14773 122.919 2.61079C122.919 2.06723 123.124 1.60653 123.535 1.22869C123.946 0.844223 124.437 0.651988 125.007 0.651988C125.583 0.651988 126.074 0.844223 126.478 1.22869C126.889 1.60653 127.095 2.06723 127.095 2.61079C127.095 3.14773 126.889 3.60843 126.478 3.9929C126.074 4.37074 125.583 4.55966 125.007 4.55966ZM137.14 28.0455C135.847 28.0455 134.737 27.8698 133.809 27.5185C132.881 27.1738 132.135 26.7098 131.572 26.1264C131.008 25.5431 130.617 24.8968 130.398 24.1875L133.64 23.402C133.786 23.7003 133.998 23.9953 134.276 24.2869C134.555 24.5852 134.929 24.8305 135.4 25.0227C135.877 25.2216 136.477 25.321 137.2 25.321C138.22 25.321 139.066 25.0724 139.735 24.5753C140.405 24.0848 140.739 23.276 140.739 22.1491V19.2557H140.56C140.375 19.6269 140.103 20.008 139.745 20.3991C139.394 20.7902 138.926 21.1184 138.343 21.3835C137.766 21.6487 137.04 21.7812 136.165 21.7812C134.992 21.7812 133.928 21.5062 132.974 20.956C132.026 20.3991 131.27 19.5705 130.707 18.4702C130.15 17.3632 129.871 15.9777 129.871 14.3139C129.871 12.6368 130.15 11.2216 130.707 10.0682C131.27 8.90814 132.029 8.02983 132.984 7.43324C133.938 6.83002 135.002 6.52841 136.175 6.52841C137.07 6.52841 137.806 6.68087 138.383 6.98579C138.966 7.28409 139.43 7.64536 139.775 8.0696C140.12 8.48722 140.381 8.88163 140.56 9.25284H140.759V6.72727H144.309V22.2486C144.309 23.5545 143.997 24.6349 143.374 25.4901C142.751 26.3452 141.899 26.9848 140.819 27.4091C139.738 27.8333 138.512 28.0455 137.14 28.0455ZM137.17 18.9574C137.932 18.9574 138.582 18.7718 139.119 18.4006C139.656 18.0294 140.063 17.4957 140.342 16.7997C140.62 16.1037 140.759 15.2685 140.759 14.294C140.759 13.3329 140.62 12.491 140.342 11.7685C140.07 11.0459 139.665 10.4858 139.129 10.0881C138.598 9.68371 137.945 9.48153 137.17 9.48153C136.368 9.48153 135.698 9.69034 135.161 10.108C134.624 10.5256 134.22 11.099 133.948 11.8281C133.676 12.5507 133.54 13.3726 133.54 14.294C133.54 15.2287 133.676 16.0473 133.948 16.75C134.227 17.446 134.634 17.9896 135.171 18.3807C135.715 18.7652 136.381 18.9574 137.17 18.9574ZM151.597 13.0511V22H147.998V6.72727H151.438V9.32244H151.617C151.969 8.46733 152.529 7.78788 153.298 7.28409C154.073 6.7803 155.031 6.52841 156.171 6.52841C157.225 6.52841 158.143 6.75379 158.925 7.20454C159.714 7.6553 160.324 8.30824 160.755 9.16335C161.192 10.0185 161.408 11.0559 161.401 12.2756V22H157.802V12.8324C157.802 11.8116 157.537 11.0128 157.006 10.4361C156.483 9.85937 155.757 9.57102 154.829 9.57102C154.199 9.57102 153.639 9.71023 153.148 9.98864C152.665 10.2604 152.283 10.6548 152.005 11.1719C151.733 11.6889 151.597 12.3153 151.597 13.0511Z" fill="black"/>
</svg>
